<svg xmlns="http://www.w3.org/2000/svg" xmlns:xlink="http://www.w3.org/1999/xlink" width="643px" height="633px" version="1.1"><defs/><g transform="translate(0.5,0.5)"><rect x="111" y="1" width="530" height="630" fill="#ffffff" stroke="#000000" pointer-events="none"/><path d="M 61 291 L 211 121" fill="none" stroke="#000000" stroke-miterlimit="10" pointer-events="none"/><path d="M 61 321 L 211 231" fill="none" stroke="#000000" stroke-miterlimit="10" pointer-events="none"/><path d="M 61 341 L 211 341" fill="none" stroke="#000000" stroke-miterlimit="10" pointer-events="none"/><path d="M 61 371 L 211 446" fill="none" stroke="#000000" stroke-miterlimit="10" pointer-events="none"/><path d="M 61 391 L 211 556" fill="none" stroke="#000000" stroke-miterlimit="10" pointer-events="none"/><ellipse cx="21" cy="311" rx="10" ry="10" fill="#ffffff" stroke="#000000" pointer-events="none"/><path d="M 21 321 L 21 354 M 21 328 L 1 328 M 21 328 L 41 328 M 21 354 L 1 381 M 21 354 L 41 381" fill="none" stroke="#000000" stroke-miterlimit="10" pointer-events="none"/><g fill="#000000" font-family="Helvetica" text-anchor="middle" font-size="12px"><text x="21" y="399">Usuario</text></g><ellipse cx="281" cy="121" rx="70" ry="35" fill="#ffffff" stroke="#000000" pointer-events="none"/><g fill="#000000" font-family="Helvetica" text-anchor="middle" font-size="12px"><text x="281" y="125">Realiza consulta</text></g><ellipse cx="511" cy="56" rx="70" ry="35" fill="#ffffff" stroke="#000000" pointer-events="none"/><g fill="#000000" font-family="Helvetica" text-anchor="middle" font-size="12px"><text x="511" y="60">Registra Ausencia</text></g><ellipse cx="511" cy="191" rx="70" ry="35" fill="#ffffff" stroke="#000000" pointer-events="none"/><g fill="#000000" font-family="Helvetica" text-anchor="middle" font-size="12px"><text x="511" y="195">Recibe respuesta</text></g><ellipse cx="281" cy="231" rx="70" ry="35" fill="#ffffff" stroke="#000000" pointer-events="none"/><g fill="#000000" font-family="Helvetica" text-anchor="middle" font-size="12px"><text x="281" y="235">Ver registro de gastos</text></g><ellipse cx="281" cy="341" rx="70" ry="35" fill="#ffffff" stroke="#000000" pointer-events="none"/><g fill="#000000" font-family="Helvetica" text-anchor="middle" font-size="12px"><text x="281" y="345">Agregar trabajador</text></g><ellipse cx="281" cy="446" rx="70" ry="35" fill="#ffffff" stroke="#000000" pointer-events="none"/><g fill="#000000" font-family="Helvetica" text-anchor="middle" font-size="12px"><text x="281" y="450">Elimnar trabajador</text></g><ellipse cx="281" cy="556" rx="70" ry="35" fill="#ffffff" stroke="#000000" pointer-events="none"/><g fill="#000000" font-family="Helvetica" text-anchor="middle" font-size="12px"><text x="281" y="560">Ingresar precio</text></g><path d="M 331 146 L 439 190" fill="none" stroke="#000000" stroke-miterlimit="10" stroke-dasharray="3 3" pointer-events="none"/><path d="M 426 192 L 440 191 L 431 180" fill="none" stroke="#000000" stroke-miterlimit="10" pointer-events="none"/><g fill="#000000" font-family="Helvetica" text-anchor="middle" font-size="11px"><rect fill="#ffffff" stroke="none" x="376" y="163" width="21" height="14" stroke-width="0"/><text x="386" y="172">Use</text></g><path d="M 351 121 L 426 71" fill="none" stroke="#000000" stroke-miterlimit="10" pointer-events="none"/><path d="M 440 62 L 431 78 L 421 64 Z" fill="none" stroke="#000000" stroke-miterlimit="10" pointer-events="none"/><g fill="#000000" font-family="Helvetica" text-anchor="middle" font-size="11px"><rect fill="#ffffff" stroke="none" x="376" y="85" width="41" height="14" stroke-width="0"/><text x="396" y="95">Extends</text></g></g></svg>